# xmcd
#
# Track frame offsets: 
#        150
#        19192
#        34208
#        59798
#        77412
#        102152
#        124803
#        150400
#        168578
#        189139
#        207589
#        227021
#        246809
#        266213
#        287408
#
# Disc length: 4120 seconds
#
# Revision: 0
# Processed by: cddbd v1.5.2PL0 Copyright (c) Steve Scherf et al.
# Submitted via: ExactAudioCopy v1.3
#
DISCID=cb10160f
DTITLE=Dr. Wu' And Friends - An Evening With Dr.Wu' And Friends
DYEAR=2012
DGENRE=Texas Blues, Blues Rock
TTITLE0=I.M A Man
TTITLE1=Why Is It So Hard
TTITLE2=Jacksboro Highway
TTITLE3=I Wanna Love You
TTITLE4=Boogie In The Rain
TTITLE5=When I Get To Heaven
TTITLE6=That Ain't Right
TTITLE7=Come Back Baby
TTITLE8=High Maintenance Baby
TTITLE9=Can't Keep A Good An Down
TTITLE10=I Don't Care Blues
TTITLE11=Bryant Irvine Roasd
TTITLE12=I Don.T Need No Woman Like You
TTITLE13=Slow Rollin' Train
TTITLE14=Bo Diddley Tribute
EXTD=
EXTT0=
EXTT1=
EXTT2=
EXTT3=
EXTT4=
EXTT5=
EXTT6=
EXTT7=
EXTT8=
EXTT9=
EXTT10=
EXTT11=
EXTT12=
EXTT13=
EXTT14=
PLAYORDER=
